# Blender v3.2.1 OBJ File: 'stuff.blend'
# www.blender.org
mtllib arch.mtl
o Cube_Cube.002
v -11.968925 6.388086 0.611914
v -11.968925 10.611914 0.611914
v -11.968925 6.388086 -0.611914
v -11.968925 10.611914 -0.611914
v 11.968925 6.388086 0.611914
v 11.968925 10.611914 0.611914
v 11.968925 6.388086 -0.611914
v 11.968925 10.611914 -0.611914
v -9.652274 6.968752 -0.611914
v 9.652274 6.968752 -0.611914
v -6.825188 7.512486 -0.611914
v -3.532978 7.854290 -0.611914
v 0.000000 7.970873 -0.611914
v 3.532978 7.854290 -0.611914
v 6.825188 7.512486 -0.611914
v 9.658145 10.611914 -0.611914
v -9.658145 10.611914 -0.611914
v 6.438764 10.611914 -0.611914
v 3.219382 10.611914 -0.611914
v 0.000000 10.611914 -0.611914
v -3.219382 10.611914 -0.611914
v -6.438764 10.611914 -0.611914
v 9.652274 6.968752 0.611914
v -9.652274 6.968752 0.611914
v 6.825188 7.512486 0.611914
v 3.532978 7.854290 0.611914
v 0.000000 7.970873 0.611914
v -3.532978 7.854290 0.611914
v -6.825188 7.512486 0.611914
v -9.658145 10.611914 0.611914
v 9.658145 10.611914 0.611914
v -6.438764 10.611914 0.611914
v -3.219382 10.611914 0.611914
v 0.000000 10.611914 0.611914
v 3.219382 10.611914 0.611914
v 6.438764 10.611914 0.611914
vt 0.375000 0.000000
vt 0.625000 0.000000
vt 0.625000 0.250000
vt 0.375000 0.250000
vt 0.625000 0.500000
vt 0.649133 0.500000
vt 0.649133 0.750000
vt 0.625000 0.750000
vt 0.375000 0.500000
vt 0.375000 0.750000
vt 0.125000 0.500000
vt 0.149194 0.500000
vt 0.149194 0.750000
vt 0.125000 0.750000
vt 0.625000 0.774133
vt 0.375000 0.774194
vt 0.850867 0.500000
vt 0.875000 0.500000
vt 0.875000 0.750000
vt 0.850867 0.750000
vt 0.375000 0.475806
vt 0.625000 0.475867
vt 0.375000 0.975806
vt 0.625000 0.975867
vt 0.625000 1.000000
vt 0.375000 1.000000
vt 0.350806 0.500000
vt 0.350806 0.750000
vt 0.817245 0.750000
vt 0.817245 0.500000
vt 0.783622 0.750000
vt 0.783622 0.500000
vt 0.750000 0.750000
vt 0.750000 0.500000
vt 0.716378 0.750000
vt 0.716378 0.500000
vt 0.682755 0.750000
vt 0.682755 0.500000
vt 0.321686 0.750000
vt 0.321686 0.500000
vt 0.288494 0.750000
vt 0.288494 0.500000
vt 0.250000 0.750000
vt 0.250000 0.500000
vt 0.211506 0.750000
vt 0.211506 0.500000
vt 0.178314 0.750000
vt 0.178314 0.500000
vt 0.361256 0.946280
vt 0.625000 0.942245
vt 0.303613 0.911897
vt 0.625000 0.908622
vt 0.375000 0.875000
vt 0.625000 0.875000
vt 0.303613 0.838103
vt 0.625000 0.841378
vt 0.361256 0.803720
vt 0.625000 0.807755
vt 0.361256 0.446280
vt 0.625000 0.442245
vt 0.303613 0.411897
vt 0.625000 0.408622
vt 0.375000 0.375000
vt 0.625000 0.375000
vt 0.303613 0.338103
vt 0.625000 0.341378
vt 0.361256 0.303720
vt 0.625000 0.307755
vt 0.375000 0.274194
vt 0.625000 0.274133
vn -0.5074 -0.6502 0.5655
vn -0.5774 0.5774 0.5774
vn -0.5774 0.5774 -0.5774
vn -0.5074 -0.6502 -0.5655
vn 0.5774 0.5774 -0.5774
vn -0.0000 0.7071 -0.7071
vn 0.0000 0.7071 0.7071
vn 0.5774 0.5774 0.5774
vn 0.5074 -0.6502 -0.5655
vn 0.5074 -0.6502 0.5655
vn 0.1514 -0.6842 -0.7134
vn 0.1514 -0.6842 0.7134
vn -0.1514 -0.6842 0.7134
vn -0.1514 -0.6842 -0.7134
vn -0.1019 -0.6896 0.7170
vn -0.1019 -0.6896 -0.7170
vn -0.0476 -0.6974 0.7151
vn -0.0476 -0.6974 -0.7151
vn 0.0000 -0.6995 0.7146
vn 0.0000 -0.6995 -0.7146
vn 0.0476 -0.6974 0.7151
vn 0.0476 -0.6974 -0.7151
vn 0.1019 -0.6896 0.7170
vn 0.1019 -0.6896 -0.7170
usemtl None
s 1
f 1/1/1 2/2/2 4/3/3 3/4/4
f 8/5/5 16/6/6 31/7/7 6/8/8
f 7/9/9 8/5/5 6/8/8 5/10/10
f 3/11/4 9/12/11 24/13/12 1/14/1
f 5/10/10 6/8/8 31/15/7 23/16/13
f 17/17/6 4/18/3 2/19/2 30/20/7
f 10/21/14 16/22/6 8/5/5 7/9/9
f 24/23/12 30/24/7 2/25/2 1/26/1
f 10/27/14 7/9/9 5/10/10 23/28/13
f 17/17/6 30/20/7 32/29/7 22/30/6
f 22/30/6 32/29/7 33/31/7 21/32/6
f 21/32/6 33/31/7 34/33/7 20/34/6
f 20/34/6 34/33/7 35/35/7 19/36/6
f 19/36/6 35/35/7 36/37/7 18/38/6
f 18/38/6 36/37/7 31/7/7 16/6/6
f 10/27/14 23/28/13 25/39/15 15/40/16
f 15/40/16 25/39/15 26/41/17 14/42/18
f 14/42/18 26/41/17 27/43/19 13/44/20
f 13/44/20 27/43/19 28/45/21 12/46/22
f 12/46/22 28/45/21 29/47/23 11/48/24
f 11/48/24 29/47/23 24/13/12 9/12/11
f 30/24/7 24/23/12 29/49/23 32/50/7
f 32/50/7 29/49/23 28/51/21 33/52/7
f 33/52/7 28/51/21 27/53/19 34/54/7
f 34/54/7 27/53/19 26/55/17 35/56/7
f 35/56/7 26/55/17 25/57/15 36/58/7
f 36/58/7 25/57/15 23/16/13 31/15/7
f 16/22/6 10/21/14 15/59/16 18/60/6
f 18/60/6 15/59/16 14/61/18 19/62/6
f 19/62/6 14/61/18 13/63/20 20/64/6
f 20/64/6 13/63/20 12/65/22 21/66/6
f 21/66/6 12/65/22 11/67/24 22/68/6
f 22/68/6 11/67/24 9/69/11 17/70/6
f 3/4/4 4/3/3 17/70/6 9/69/11
