# Blender v3.2.1 OBJ File: 'Big key.blend'
# www.blender.org
mtllib Big key.mtl
o Key_Cube.001
v -0.127767 0.013518 0.154218
v -0.161894 0.791621 0.133658
v -0.127767 0.013518 -0.154218
v -0.161894 0.791621 -0.133658
v 0.127767 0.013518 0.154218
v 0.161894 0.791621 0.133658
v 0.127767 0.013518 -0.154218
v 0.161894 0.791621 -0.133658
v -0.143660 0.972304 0.116443
v -0.143660 0.972304 -0.116443
v 0.143660 0.972304 -0.116443
v 0.143660 0.972304 0.116443
v -0.070756 0.940876 -0.559124
v 0.070756 0.940876 -0.559124
v 0.070756 0.940876 0.559124
v -0.070756 0.940876 0.559124
v -0.162636 1.126345 -0.418188
v 0.162636 1.126345 -0.418188
v 0.162636 1.126345 0.418188
v -0.162636 1.126345 0.418188
v -0.070756 1.559124 -0.559124
v 0.070756 1.559124 -0.559124
v 0.070756 1.559124 0.559124
v -0.070756 1.559124 0.559124
v -0.162636 1.396260 -0.418188
v 0.162636 1.396260 -0.418188
v 0.162636 1.396260 0.418188
v -0.162636 1.396260 0.418188
v -0.074169 0.054065 -0.086146
v -0.074169 0.202404 -0.086146
v -0.074169 0.054065 -0.348536
v -0.074169 0.202404 -0.348536
v 0.074169 0.054065 -0.086146
v 0.074169 0.202404 -0.086146
v 0.074169 0.054065 -0.348536
v 0.074169 0.202404 -0.348536
v -0.074169 0.296105 -0.086146
v -0.074169 0.296105 -0.236790
v 0.074169 0.296105 -0.236790
v 0.074169 0.296105 -0.086146
v -0.074169 0.456462 -0.086146
v -0.074169 0.456462 -0.381622
v 0.074169 0.456462 -0.381622
v 0.074169 0.456462 -0.086146
v -0.074169 0.565987 -0.086146
v -0.074169 0.565987 -0.381622
v 0.074169 0.565987 -0.381622
v 0.074169 0.565987 -0.086146
v 0.000000 1.028874 -0.082254
v 0.000000 1.028874 0.082254
v 0.000000 1.137686 -0.295401
v 0.000000 1.137686 0.295401
v 0.000000 1.328350 -0.295401
v 0.000000 1.328350 0.295401
vt 0.375000 0.000000
vt 0.625000 0.000000
vt 0.625000 0.250000
vt 0.375000 0.250000
vt 0.625000 0.500000
vt 0.375000 0.500000
vt 0.625000 0.750000
vt 0.375000 0.750000
vt 0.625000 1.000000
vt 0.375000 1.000000
vt 0.125000 0.500000
vt 0.125000 0.750000
vt 0.625000 0.250000
vt 0.625000 0.250000
vt 0.625000 0.250000
vt 0.750000 0.500000
vt 0.875000 0.500000
vt 0.875000 0.750000
vt 0.750000 0.750000
vt 0.625000 0.750000
vt 0.625000 1.000000
vt 0.625000 0.500000
vt 0.625000 0.750000
vt 0.625000 0.000000
vt 0.625000 0.500000
vt 0.625000 0.500000
vt 0.625000 0.500000
vt 0.625000 0.500000
vt 0.625000 0.250000
vt 0.625000 0.750000
vt 0.625000 0.000000
vt 0.625000 0.000000
vt 0.875000 0.750000
vt 0.750000 0.750000
vt 0.750000 0.500000
vt 0.750000 0.750000
vt 0.875000 0.750000
vt 0.875000 0.500000
vt 0.750000 0.500000
vt 0.625000 0.750000
vt 0.625000 0.750000
vt 0.625000 0.000000
vt 0.625000 0.000000
vt 0.625000 1.000000
vt 0.625000 0.250000
vt 0.375000 0.000000
vt 0.625000 0.000000
vt 0.625000 0.250000
vt 0.375000 0.250000
vt 0.625000 0.500000
vt 0.375000 0.500000
vt 0.625000 0.750000
vt 0.375000 0.750000
vt 0.625000 1.000000
vt 0.375000 1.000000
vt 0.125000 0.500000
vt 0.125000 0.750000
vt 0.625000 0.250000
vt 0.625000 0.500000
vt 0.625000 1.000000
vt 0.625000 0.750000
vt 0.625000 0.750000
vt 0.625000 1.000000
vt 0.625000 0.000000
vt 0.625000 0.500000
vt 0.625000 0.500000
vt 0.625000 0.750000
vt 0.625000 0.250000
vt 0.625000 0.000000
vt 0.875000 0.500000
vt 0.875000 0.750000
vt 0.625000 0.000000
vt 0.625000 0.250000
vt 0.625000 1.000000
vt 0.875000 0.500000
vn -0.5622 -0.5815 0.5881
vn -0.8616 -0.2669 0.4317
vn -0.8616 -0.2669 -0.4317
vn -0.5622 -0.5815 -0.5881
vn 0.8616 -0.2669 -0.4317
vn 0.5622 -0.5815 -0.5881
vn 0.8616 -0.2669 0.4317
vn 0.5622 -0.5815 0.5881
vn -0.8800 0.4687 0.0771
vn -0.9935 0.1136 0.0112
vn -0.4797 -0.4868 -0.7300
vn 0.0000 0.9753 0.2210
vn -0.8800 0.4687 -0.0771
vn -0.0000 0.9753 -0.2210
vn 0.4797 -0.4868 0.7300
vn -0.4797 -0.4868 0.7300
vn 0.8800 0.4687 0.0771
vn 0.8800 0.4687 -0.0771
vn 0.9935 0.1136 0.0112
vn 0.4797 -0.4868 -0.7300
vn 0.4598 0.6305 -0.6253
vn 0.9976 0.0400 -0.0559
vn -0.4598 0.6305 -0.6253
vn 0.9935 0.1136 -0.0112
vn -0.9935 0.1136 -0.0112
vn 0.0000 0.6130 -0.7901
vn 0.0000 0.6130 0.7901
vn 0.0000 -0.7996 -0.6005
vn -0.9976 0.0400 0.0559
vn -0.9976 0.0400 -0.0559
vn 0.0000 -0.7996 0.6005
vn 0.4598 0.6305 0.6253
vn 0.9976 0.0400 0.0559
vn -0.4598 0.6305 0.6253
vn -0.5774 -0.5774 0.5774
vn -0.7071 0.0000 0.7071
vn -0.6232 0.3306 -0.7087
vn -0.5774 -0.5774 -0.5774
vn 0.6232 0.3306 -0.7087
vn 0.5774 -0.5774 -0.5774
vn 0.7071 0.0000 0.7071
vn 0.5774 -0.5774 0.5774
vn -0.9088 0.0289 -0.4162
vn 0.9088 0.0289 -0.4162
vn 0.6345 -0.2775 -0.7214
vn 0.5774 0.5774 -0.5774
vn 0.5774 0.5774 0.5774
vn -0.6345 -0.2775 -0.7214
vn -0.5774 0.5774 -0.5774
vn -0.5774 0.5774 0.5774
usemtl Material
s 1
f 1/1/1 2/2/2 4/3/3 3/4/4
f 3/4/4 4/3/3 8/5/5 7/6/6
f 7/6/6 8/5/5 6/7/7 5/8/8
f 5/8/8 6/7/7 2/9/2 1/10/1
f 3/11/4 7/6/6 5/8/8 1/12/1
f 4/3/3 10/13/9 17/14/10 13/15/11
f 49/16/12 10/17/9 9/18/13 50/19/14
f 2/9/2 6/7/7 15/20/15 16/21/16
f 6/7/7 8/5/5 11/22/17 12/23/18
f 4/3/3 2/2/2 9/24/13 10/13/9
f 18/25/19 14/26/20 22/27/21 26/28/22
f 14/26/20 13/15/11 21/29/23 22/27/21
f 6/7/7 12/23/18 19/30/24 15/20/15
f 8/5/5 4/3/3 13/15/11 14/26/20
f 11/22/17 8/5/5 14/26/20 18/25/19
f 9/24/13 2/2/2 16/31/16 20/32/25
f 50/19/14 9/18/13 20/33/25 52/34/26
f 49/16/12 11/22/17 18/25/19 51/35/27
f 54/36/28 28/37/29 25/38/30 53/39/31
f 23/40/32 27/41/33 26/28/22 22/27/21
f 20/32/25 16/31/16 24/42/34 28/43/29
f 52/34/26 20/33/25 28/37/29 54/36/28
f 16/21/16 15/20/15 23/40/32 24/44/34
f 13/15/11 17/14/10 25/45/30 21/29/23
f 15/20/15 19/30/24 27/41/33 23/40/32
f 51/35/27 18/25/19 26/28/22 53/39/31
f 28/43/29 24/42/34 21/29/23 25/45/30
f 24/44/34 23/40/32 22/27/21 21/29/23
f 29/46/35 30/47/36 32/48/37 31/49/38
f 31/49/38 32/48/37 36/50/39 35/51/40
f 35/51/40 36/50/39 34/52/41 33/53/42
f 33/53/42 34/52/41 30/54/36 29/55/35
f 31/56/38 35/51/40 33/53/42 29/57/35
f 36/50/39 32/48/37 38/58/43 39/59/44
f 37/60/36 40/61/41 44/62/41 41/63/36
f 34/52/41 36/50/39 39/59/44 40/61/41
f 32/48/37 30/47/36 37/64/36 38/58/43
f 30/54/36 34/52/41 40/61/41 37/60/36
f 44/62/41 43/65/45 47/66/46 48/67/47
f 39/59/44 38/58/43 42/68/48 43/65/45
f 40/61/41 39/59/44 43/65/45 44/62/41
f 38/58/43 37/64/36 41/69/36 42/68/48
f 47/66/46 46/70/49 45/71/50 48/67/47
f 42/68/48 41/69/36 45/72/50 46/73/49
f 41/63/36 44/62/41 48/67/47 45/74/50
f 43/65/45 42/68/48 46/73/49 47/66/46
f 17/75/10 51/35/27 53/39/31 25/38/30
f 19/30/24 52/34/26 54/36/28 27/41/33
f 27/41/33 54/36/28 53/39/31 26/28/22
f 10/17/9 49/16/12 51/35/27 17/75/10
f 12/23/18 50/19/14 52/34/26 19/30/24
f 11/22/17 49/16/12 50/19/14 12/23/18
