# Blender v3.2.1 OBJ File: 'Bigger key.blend'
# www.blender.org
mtllib Bigger key.mtl
o Key_Cube.001
v -0.192545 0.791621 0.160456
v -0.127767 0.013518 -0.154218
v -0.192545 0.791621 -0.157470
v 0.192545 0.791621 0.160456
v 0.127767 0.013518 -0.154218
v 0.192545 0.791621 -0.157470
v -0.135444 0.972304 0.139982
v -0.135444 0.972304 -0.136996
v 0.135444 0.972304 -0.136996
v 0.135444 0.972304 0.139982
v -0.084152 0.940876 -0.480484
v 0.084152 0.940876 -0.480484
v 0.084152 0.940876 0.451579
v -0.084152 0.940876 0.451579
v -0.153335 1.126345 -0.328401
v 0.153335 1.126345 -0.328401
v 0.153335 1.126345 0.299495
v -0.153335 1.126345 0.299495
v -0.084152 1.559124 -0.480484
v 0.084152 1.559124 -0.480484
v 0.084152 1.559124 0.451579
v -0.084152 1.559124 0.451579
v -0.153335 1.396260 -0.328401
v 0.153335 1.396260 -0.328401
v 0.153335 1.396260 0.299495
v -0.153335 1.396260 0.299495
v -0.074169 0.054065 -0.086146
v -0.074169 0.202404 -0.086146
v -0.074169 0.054065 -0.348536
v -0.074169 0.202404 -0.348536
v 0.074169 0.054065 -0.086146
v 0.074169 0.202404 -0.086146
v 0.074169 0.054065 -0.348536
v 0.074169 0.202404 -0.348536
v -0.074169 0.296105 -0.086146
v -0.074169 0.296105 -0.236790
v 0.074169 0.296105 -0.236790
v 0.074169 0.296105 -0.086146
v -0.074169 0.456462 -0.086146
v -0.074169 0.456462 -0.381622
v 0.074169 0.456462 -0.381622
v 0.074169 0.456462 -0.086146
v -0.074169 0.565987 -0.086146
v -0.074169 0.565987 -0.381622
v 0.074169 0.565987 -0.381622
v 0.074169 0.565987 -0.086146
v 0.000000 1.028874 -0.096333
v 0.000000 1.028874 0.099320
v 0.000000 1.137686 -0.195902
v 0.000000 1.137686 0.166996
v 0.000000 1.328350 -0.195902
v 0.000000 1.328350 0.166996
v -0.103915 1.250000 -0.400839
v 0.000000 1.424169 -0.400839
v -0.163935 1.273711 -0.615820
v -0.018453 1.472980 -0.533155
v -0.000000 1.146085 -0.400839
v 0.103915 1.250000 -0.400839
v -0.018453 1.156789 -0.686542
v 0.127028 1.273711 -0.615820
v -0.048065 1.597573 -0.626643
v -0.158573 1.633708 -0.711961
v -0.048065 1.669843 -0.797278
v 0.062443 1.633708 -0.711961
v -0.048065 1.967595 -0.584148
v -0.086736 1.980240 -0.614004
v -0.048065 1.992885 -0.643860
v -0.009394 1.980240 -0.614004
v 0.084152 1.745385 0.001493
v 0.153335 1.582521 0.001493
v -0.153335 1.582521 0.001493
v -0.084152 1.745385 0.001493
v 0.000000 1.514611 0.001493
v 0.045306 1.250000 0.344700
v -0.058610 1.424169 0.344700
v 0.105325 1.273711 0.559681
v -0.040156 1.472980 0.477016
v -0.058610 1.146085 0.344700
v -0.162525 1.250000 0.344700
v -0.040156 1.156789 0.630404
v -0.185638 1.273711 0.559681
v -0.010545 1.597573 0.570505
v 0.099963 1.633708 0.655822
v -0.010545 1.669843 0.741140
v -0.121053 1.633708 0.655822
v -0.010545 1.967595 0.528010
v 0.028126 1.980240 0.557866
v -0.010545 1.992885 0.587722
v -0.049216 1.980240 0.557866
v 0.022922 0.918108 0.246320
v -0.049818 0.977629 0.333246
v 0.064936 0.765451 0.331622
v -0.036901 0.895365 0.402825
v -0.049818 0.882596 0.194457
v -0.122559 0.918108 0.246320
v -0.036901 0.672609 0.297436
v -0.138738 0.765451 0.331622
v -0.016173 0.868035 0.496957
v 0.061183 0.816585 0.544149
v -0.016173 0.765134 0.591340
v -0.093528 0.816585 0.544149
v -0.016173 1.026264 0.667109
v 0.010897 1.008260 0.683623
v -0.016173 0.990255 0.700138
v -0.043243 1.008260 0.683623
v -0.081532 0.949758 -0.279480
v -0.008791 1.009279 -0.366406
v -0.123546 0.797102 -0.364782
v -0.021709 0.927016 -0.435985
v -0.008791 0.914246 -0.227617
v 0.063949 0.949758 -0.279480
v -0.021709 0.704259 -0.330596
v 0.080128 0.797102 -0.364782
v -0.042437 0.899685 -0.530117
v -0.119792 0.848235 -0.577309
v -0.042437 0.796785 -0.624500
v 0.034919 0.848235 -0.577309
v -0.042437 1.057914 -0.700269
v -0.069507 1.039910 -0.716783
v -0.042437 1.021906 -0.733297
v -0.015367 1.039910 -0.716783
v 0.000000 1.061013 0.001493
v 0.000000 1.434824 0.001493
v -0.079136 1.247919 -0.077643
v -0.079136 1.247919 0.080630
v 0.079136 1.247919 -0.077643
v 0.079136 1.247919 0.080630
v -0.104889 0.752716 0.160144
v -0.104889 0.752716 -0.157307
v 0.104889 0.752716 -0.157307
v 0.104889 0.752716 0.160144
v 0.219467 1.700119 0.045836
v 0.219466 1.448864 -0.045836
v 0.219466 1.448864 0.045836
v 0.219467 1.700119 -0.045836
v 0.219466 1.574491 -0.125627
v 0.219466 1.574491 0.125627
v -0.219466 1.574491 0.125627
v -0.219466 1.574491 -0.125627
v -0.219467 1.448864 -0.045836
v -0.219466 1.700119 -0.045836
v -0.219467 1.448864 0.045836
v -0.219466 1.700119 0.045836
v -0.127767 0.013518 -0.044996
v -0.121601 0.212725 0.155815
v 0.121601 0.212725 0.155815
v 0.127767 0.013518 -0.044996
vt 0.612500 0.000000
vt 0.625000 0.000000
vt 0.625000 0.250000
vt 0.612500 0.250000
vt 0.625000 0.500000
vt 0.612500 0.500000
vt 0.625000 0.750000
vt 0.612500 0.750000
vt 0.625000 1.000000
vt 0.612500 1.000000
vt 0.439004 0.750000
vt 0.439004 1.000000
vt 0.625000 0.250000
vt 0.625000 0.250000
vt 0.625000 0.250000
vt 0.750000 0.500000
vt 0.875000 0.500000
vt 0.875000 0.750000
vt 0.750000 0.750000
vt 0.625000 0.750000
vt 0.625000 1.000000
vt 0.625000 0.500000
vt 0.625000 0.750000
vt 0.625000 0.000000
vt 0.625000 0.500000
vt 0.625000 0.500000
vt 0.625000 0.500000
vt 0.625000 0.500000
vt 0.625000 0.250000
vt 0.625000 0.750000
vt 0.625000 0.000000
vt 0.625000 0.000000
vt 0.875000 0.750000
vt 0.750000 0.750000
vt 0.750000 0.500000
vt 0.750000 0.625000
vt 0.875000 0.625000
vt 0.875000 0.500000
vt 0.750000 0.500000
vt 0.625000 0.625000
vt 0.625000 0.625000
vt 0.625000 0.000000
vt 0.625000 0.000000
vt 0.875000 0.750000
vt 0.750000 0.750000
vt 0.625000 0.750000
vt 0.625000 1.000000
vt 0.625000 0.250000
vt 0.625000 0.750000
vt 0.625000 0.125000
vt 0.625000 0.125000
vt 0.625000 0.625000
vt 0.375000 0.000000
vt 0.625000 0.000000
vt 0.625000 0.250000
vt 0.375000 0.250000
vt 0.625000 0.500000
vt 0.375000 0.500000
vt 0.625000 0.750000
vt 0.375000 0.750000
vt 0.625000 1.000000
vt 0.375000 1.000000
vt 0.125000 0.500000
vt 0.125000 0.750000
vt 0.625000 0.250000
vt 0.625000 0.500000
vt 0.625000 1.000000
vt 0.625000 0.750000
vt 0.625000 0.750000
vt 0.625000 1.000000
vt 0.625000 0.000000
vt 0.625000 0.500000
vt 0.625000 0.500000
vt 0.625000 0.750000
vt 0.625000 0.250000
vt 0.625000 0.000000
vt 0.875000 0.500000
vt 0.875000 0.750000
vt 0.625000 0.000000
vt 0.625000 0.250000
vt 0.625000 1.000000
vt 0.875000 0.500000
vt 0.375000 0.000000
vt 0.625000 0.000000
vt 0.625000 0.250000
vt 0.375000 0.250000
vt 0.625000 0.250000
vt 0.375000 0.250000
vt 0.375000 0.500000
vt 0.625000 0.500000
vt 0.625000 0.750000
vt 0.375000 0.750000
vt 0.625000 1.000000
vt 0.375000 1.000000
vt 0.125000 0.500000
vt 0.125000 0.750000
vt 0.875000 0.500000
vt 0.875000 0.750000
vt 0.875000 0.500000
vt 0.625000 0.500000
vt 0.625000 0.500000
vt 0.875000 0.500000
vt 0.375000 0.500000
vt 0.125000 0.500000
vt 0.375000 0.250000
vt 0.625000 0.250000
vt 0.375000 0.500000
vt 0.125000 0.500000
vt 0.375000 0.000000
vt 0.625000 0.000000
vt 0.625000 0.250000
vt 0.375000 0.250000
vt 0.625000 0.250000
vt 0.375000 0.250000
vt 0.375000 0.500000
vt 0.625000 0.500000
vt 0.625000 0.750000
vt 0.375000 0.750000
vt 0.625000 1.000000
vt 0.375000 1.000000
vt 0.125000 0.500000
vt 0.125000 0.750000
vt 0.875000 0.500000
vt 0.875000 0.750000
vt 0.875000 0.500000
vt 0.625000 0.500000
vt 0.625000 0.500000
vt 0.875000 0.500000
vt 0.375000 0.500000
vt 0.125000 0.500000
vt 0.375000 0.250000
vt 0.625000 0.250000
vt 0.375000 0.500000
vt 0.125000 0.500000
vt 0.375000 0.000000
vt 0.625000 0.000000
vt 0.625000 0.250000
vt 0.375000 0.250000
vt 0.625000 0.250000
vt 0.375000 0.250000
vt 0.375000 0.500000
vt 0.625000 0.500000
vt 0.625000 0.750000
vt 0.375000 0.750000
vt 0.625000 1.000000
vt 0.375000 1.000000
vt 0.125000 0.500000
vt 0.125000 0.750000
vt 0.875000 0.500000
vt 0.875000 0.750000
vt 0.875000 0.500000
vt 0.625000 0.500000
vt 0.625000 0.500000
vt 0.875000 0.500000
vt 0.375000 0.500000
vt 0.125000 0.500000
vt 0.375000 0.250000
vt 0.625000 0.250000
vt 0.375000 0.500000
vt 0.125000 0.500000
vt 0.375000 0.000000
vt 0.625000 0.000000
vt 0.625000 0.250000
vt 0.375000 0.250000
vt 0.625000 0.250000
vt 0.375000 0.250000
vt 0.375000 0.500000
vt 0.625000 0.500000
vt 0.625000 0.750000
vt 0.375000 0.750000
vt 0.625000 1.000000
vt 0.375000 1.000000
vt 0.125000 0.500000
vt 0.125000 0.750000
vt 0.875000 0.500000
vt 0.875000 0.750000
vt 0.875000 0.500000
vt 0.625000 0.500000
vt 0.625000 0.500000
vt 0.875000 0.500000
vt 0.375000 0.500000
vt 0.125000 0.500000
vt 0.375000 0.250000
vt 0.625000 0.250000
vt 0.375000 0.500000
vt 0.125000 0.500000
vt 0.500000 0.000000
vt 0.625000 0.250000
vt 0.500000 0.250000
vt 0.625000 0.500000
vt 0.500000 0.500000
vt 0.625000 0.750000
vt 0.500000 0.750000
vt 0.625000 1.000000
vt 0.500000 1.000000
vt 0.375000 0.750000
vt 0.375000 0.500000
vt 0.375000 0.250000
vt 0.375000 0.000000
vt 0.375000 0.500000
vt 0.375000 0.588529
vt 0.375000 0.250000
vt 0.125000 0.500000
vt 0.125000 0.588529
vt 0.500000 1.000000
vt 0.000000 1.000000
vt 0.000000 1.000000
vt 0.500000 1.000000
vt 0.500000 0.000000
vt 1.000000 0.000000
vt 1.000000 0.000000
vt 0.500000 0.000000
vt 0.000000 0.000000
vt 0.000000 0.000000
vt 1.000000 1.000000
vt 1.000000 1.000000
vt 0.368968 0.750000
vt 0.131032 0.750000
vt 0.375000 0.161471
vt 0.439004 0.000000
vn -0.4351 -0.2817 0.8552
vn -0.7998 -0.5207 0.2987
vn -0.8014 -0.5269 -0.2831
vn -0.4360 -0.2784 -0.8558
vn 0.8014 -0.5269 -0.2831
vn 0.4360 -0.2784 -0.8558
vn 0.7998 -0.5207 0.2987
vn 0.4351 -0.2817 0.8552
vn 0.6352 -0.2881 0.7166
vn -0.6352 -0.2881 0.7166
vn -0.8662 0.4869 0.1125
vn -0.9866 0.1310 0.0977
vn -0.5015 -0.4331 -0.7490
vn 0.0000 0.9403 0.3404
vn -0.8792 0.4613 -0.1189
vn -0.0000 0.9158 -0.4016
vn 0.4981 -0.4178 0.7598
vn -0.4981 -0.4178 0.7598
vn 0.8662 0.4869 0.1125
vn 0.8792 0.4613 -0.1189
vn 0.9866 0.1310 0.0977
vn 0.5015 -0.4331 -0.7490
vn 0.4968 0.4986 -0.7103
vn 0.9975 -0.0445 0.0540
vn -0.4968 0.4986 -0.7103
vn 0.9860 0.1209 -0.1150
vn -0.9860 0.1209 -0.1150
vn 0.0000 0.3768 -0.9263
vn 0.0000 0.4570 0.8895
vn 0.0000 -0.9994 -0.0354
vn -0.9952 -0.0979 -0.0038
vn -0.9975 -0.0445 0.0540
vn 0.0000 -0.4765 0.8792
vn 0.5238 0.8518 0.0100
vn 0.9952 -0.0979 -0.0038
vn -0.4971 0.4900 0.7161
vn -0.9969 -0.0450 -0.0641
vn 0.0000 -0.4401 -0.8980
vn 0.4971 0.4900 0.7161
vn 0.9969 -0.0450 -0.0641
vn -0.5238 0.8518 0.0100
vn -0.5774 -0.5774 0.5774
vn -0.7071 0.0000 0.7071
vn -0.6232 0.3306 -0.7087
vn -0.5774 -0.5774 -0.5774
vn 0.6232 0.3306 -0.7087
vn 0.5774 -0.5774 -0.5774
vn 0.7071 0.0000 0.7071
vn 0.5774 -0.5774 0.5774
vn -0.9088 0.0289 -0.4162
vn 0.9088 0.0289 -0.4162
vn 0.6345 -0.2775 -0.7214
vn 0.5774 0.5774 -0.5774
vn 0.5774 0.5774 0.5774
vn -0.6345 -0.2775 -0.7214
vn -0.5774 0.5774 -0.5774
vn -0.5774 0.5774 0.5774
vn -0.7189 -0.1700 0.6740
vn 0.0529 0.7206 0.6913
vn 0.0230 0.6503 0.7594
vn -0.9612 -0.2261 -0.1580
vn -0.0321 0.2095 0.9773
vn -0.9889 0.0526 -0.1386
vn -0.0016 -0.7912 -0.6115
vn 0.9526 -0.1568 -0.2607
vn 0.7756 -0.1473 0.6138
vn 0.0300 -0.8258 0.5632
vn 0.9763 0.1317 -0.1719
vn 0.7681 0.6084 0.1996
vn 0.0000 0.3566 0.9343
vn -0.0151 0.1461 -0.9892
vn -0.7681 0.6084 0.1996
vn 0.0000 0.8664 -0.4993
vn 0.7189 -0.1700 -0.6740
vn -0.0529 0.7206 -0.6913
vn -0.0230 0.6503 -0.7594
vn 0.9612 -0.2261 0.1580
vn 0.0321 0.2095 -0.9773
vn 0.9889 0.0526 0.1386
vn 0.0016 -0.7912 0.6115
vn -0.9526 -0.1568 0.2607
vn -0.7756 -0.1473 -0.6138
vn -0.0300 -0.8258 -0.5632
vn -0.9763 0.1317 0.1719
vn -0.7681 0.6084 -0.1996
vn -0.0000 0.3566 -0.9343
vn 0.0151 0.1461 0.9892
vn 0.7681 0.6084 -0.1996
vn 0.0000 0.8664 0.4993
vn 0.7335 0.4969 -0.4637
vn -0.0386 0.9480 0.3160
vn -0.0133 0.9212 0.3888
vn 0.9553 -0.2315 -0.1838
vn 0.0476 0.9459 -0.3210
vn 0.9811 -0.0957 0.1679
vn -0.0089 -0.9217 -0.3879
vn -0.9586 -0.2771 -0.0658
vn -0.7836 0.4640 -0.4132
vn -0.0255 0.0925 -0.9954
vn -0.9596 -0.0841 0.2685
vn -0.7626 0.4942 0.4175
vn -0.0000 0.9924 -0.1228
vn 0.0210 -0.7539 0.6566
vn 0.7626 0.4942 0.4175
vn 0.0000 -0.0222 0.9998
vn -0.7335 0.4969 0.4637
vn 0.0386 0.9480 -0.3160
vn 0.0133 0.9212 -0.3888
vn -0.9553 -0.2315 0.1838
vn -0.0476 0.9459 0.3210
vn -0.9811 -0.0957 -0.1679
vn 0.0089 -0.9217 0.3879
vn 0.9586 -0.2771 0.0658
vn 0.7836 0.4640 0.4132
vn 0.0255 0.0925 0.9954
vn 0.9596 -0.0841 -0.2685
vn 0.7626 0.4942 -0.4175
vn -0.0000 0.9924 0.1228
vn -0.0210 -0.7539 -0.6566
vn -0.7626 0.4942 -0.4175
vn -0.0000 -0.0222 -0.9998
vn 0.0000 1.0000 0.0000
vn -0.7071 -0.0000 -0.7071
vn 0.7071 -0.0000 -0.7071
vn 0.0000 -1.0000 0.0000
vn 0.5873 -0.5702 -0.5744
vn 0.6420 -0.7069 0.2969
vn -0.5873 -0.5702 -0.5744
vn -0.6420 -0.7069 0.2969
vn -0.6040 0.0000 -0.7970
vn -0.6131 0.6924 -0.3805
vn 0.6131 0.6924 -0.3805
vn 0.6040 -0.0000 -0.7970
vn -0.6040 0.0000 0.7970
vn -0.6131 -0.6924 0.3805
vn 0.6131 -0.6924 0.3805
vn 0.6040 -0.0000 0.7970
vn 0.6131 0.6924 0.3805
vn -0.6131 0.6924 0.3805
vn -0.6131 -0.6924 -0.3805
vn 0.6131 -0.6924 -0.3805
usemtl Material
s 1
f 128/1/1 1/2/2 3/3/3 129/4/4
f 129/4/4 3/3/3 6/5/5 130/6/6
f 130/6/6 6/5/5 4/7/7 131/8/8
f 131/8/8 4/7/7 1/9/2 128/10/1
f 146/11/9 131/8/8 128/10/1 145/12/10
f 3/3/3 8/13/11 15/14/12 11/15/13
f 47/16/14 8/17/11 7/18/15 48/19/16
f 1/9/2 4/7/7 13/20/17 14/21/18
f 4/7/7 6/5/5 9/22/19 10/23/20
f 3/3/3 1/2/2 7/24/15 8/13/11
f 16/25/21 12/26/22 20/27/23 24/28/24
f 12/26/22 11/15/13 19/29/25 20/27/23
f 4/7/7 10/23/20 17/30/26 13/20/17
f 6/5/5 3/3/3 11/15/13 12/26/22
f 9/22/19 6/5/5 12/26/22 16/25/21
f 7/24/15 1/2/2 14/31/18 18/32/27
f 48/19/16 7/18/15 18/33/27 50/34/28
f 47/16/14 9/22/19 16/25/21 49/35/29
f 73/36/30 71/37/31 23/38/32 51/39/33
f 69/40/34 70/41/35 24/28/24 20/27/23
f 18/32/27 14/31/18 22/42/36 26/43/37
f 50/34/28 18/33/27 26/44/37 52/45/38
f 14/21/18 13/20/17 21/46/39 22/47/36
f 11/15/13 15/14/12 23/48/32 19/29/25
f 13/20/17 17/30/26 25/49/40 21/46/39
f 49/35/29 16/25/21 24/28/24 51/39/33
f 71/50/31 72/51/41 19/29/25 23/48/32
f 72/52/41 69/40/34 20/27/23 19/29/25
f 27/53/42 28/54/43 30/55/44 29/56/45
f 29/56/45 30/55/44 34/57/46 33/58/47
f 33/58/47 34/57/46 32/59/48 31/60/49
f 31/60/49 32/59/48 28/61/43 27/62/42
f 29/63/45 33/58/47 31/60/49 27/64/42
f 34/57/46 30/55/44 36/65/50 37/66/51
f 35/67/43 38/68/48 42/69/48 39/70/43
f 32/59/48 34/57/46 37/66/51 38/68/48
f 30/55/44 28/54/43 35/71/43 36/65/50
f 28/61/43 32/59/48 38/68/48 35/67/43
f 42/69/48 41/72/52 45/73/53 46/74/54
f 37/66/51 36/65/50 40/75/55 41/72/52
f 38/68/48 37/66/51 41/72/52 42/69/48
f 36/65/50 35/71/43 39/76/43 40/75/55
f 45/73/53 44/77/56 43/78/57 46/74/54
f 40/75/55 39/76/43 43/79/57 44/80/56
f 39/70/43 42/69/48 46/74/54 43/81/57
f 41/72/52 40/75/55 44/80/56 45/73/53
f 15/82/12 49/35/29 51/39/33 23/38/32
f 17/30/26 50/34/28 52/45/38 25/49/40
f 70/41/35 73/36/30 51/39/33 24/28/24
f 8/17/11 47/16/14 49/35/29 15/82/12
f 10/23/20 48/19/16 50/34/28 17/30/26
f 9/22/19 47/16/14 48/19/16 10/23/20
f 53/83/58 54/84/59 56/85/60 55/86/61
f 55/86/61 56/85/60 61/87/62 62/88/63
f 59/89/64 60/90/65 58/91/66 57/92/67
f 57/92/67 58/91/66 54/93/59 53/94/58
f 55/95/61 59/89/64 57/92/67 53/96/58
f 60/90/65 56/97/60 54/98/59 58/91/66
f 61/99/62 64/100/68 68/101/69 65/102/70
f 60/90/65 59/89/64 63/103/71 64/100/68
f 59/89/64 55/95/61 62/104/63 63/103/71
f 56/97/60 60/90/65 64/100/68 61/99/62
f 66/105/72 65/106/70 68/101/69 67/107/73
f 62/88/63 61/87/62 65/106/70 66/105/72
f 64/100/68 63/103/71 67/107/73 68/101/69
f 63/103/71 62/104/63 66/108/72 67/107/73
f 25/49/40 52/45/38 73/36/30 70/41/35
f 22/47/36 21/46/39 69/40/34 72/52/41
f 26/43/37 22/42/36 72/51/41 71/50/31
f 21/46/39 25/49/40 70/41/35 69/40/34
f 52/45/38 26/44/37 71/37/31 73/36/30
f 74/109/74 75/110/75 77/111/76 76/112/77
f 76/112/77 77/111/76 82/113/78 83/114/79
f 80/115/80 81/116/81 79/117/82 78/118/83
f 78/118/83 79/117/82 75/119/75 74/120/74
f 76/121/77 80/115/80 78/118/83 74/122/74
f 81/116/81 77/123/76 75/124/75 79/117/82
f 82/125/78 85/126/84 89/127/85 86/128/86
f 81/116/81 80/115/80 84/129/87 85/126/84
f 80/115/80 76/121/77 83/130/79 84/129/87
f 77/123/76 81/116/81 85/126/84 82/125/78
f 87/131/88 86/132/86 89/127/85 88/133/89
f 83/114/79 82/113/78 86/132/86 87/131/88
f 85/126/84 84/129/87 88/133/89 89/127/85
f 84/129/87 83/130/79 87/134/88 88/133/89
f 90/135/90 91/136/91 93/137/92 92/138/93
f 92/138/93 93/137/92 98/139/94 99/140/95
f 96/141/96 97/142/97 95/143/98 94/144/99
f 94/144/99 95/143/98 91/145/91 90/146/90
f 92/147/93 96/141/96 94/144/99 90/148/90
f 97/142/97 93/149/92 91/150/91 95/143/98
f 98/151/94 101/152/100 105/153/101 102/154/102
f 97/142/97 96/141/96 100/155/103 101/152/100
f 96/141/96 92/147/93 99/156/95 100/155/103
f 93/149/92 97/142/97 101/152/100 98/151/94
f 103/157/104 102/158/102 105/153/101 104/159/105
f 99/140/95 98/139/94 102/158/102 103/157/104
f 101/152/100 100/155/103 104/159/105 105/153/101
f 100/155/103 99/156/95 103/160/104 104/159/105
f 106/161/106 107/162/107 109/163/108 108/164/109
f 108/164/109 109/163/108 114/165/110 115/166/111
f 112/167/112 113/168/113 111/169/114 110/170/115
f 110/170/115 111/169/114 107/171/107 106/172/106
f 108/173/109 112/167/112 110/170/115 106/174/106
f 113/168/113 109/175/108 107/176/107 111/169/114
f 114/177/110 117/178/116 121/179/117 118/180/118
f 113/168/113 112/167/112 116/181/119 117/178/116
f 112/167/112 108/173/109 115/182/111 116/181/119
f 109/175/108 113/168/113 117/178/116 114/177/110
f 119/183/120 118/184/118 121/179/117 120/185/121
f 115/166/111 114/165/110 118/184/118 119/183/120
f 117/178/116 116/181/119 120/185/121 121/179/117
f 116/181/119 115/182/111 119/186/120 120/185/121
f 125/187/43 123/188/122 124/189/123
f 124/189/123 123/190/122 126/191/124
f 126/191/124 123/192/122 127/193/48
f 127/193/48 123/194/122 125/195/43
f 122/196/125 127/193/48 125/195/43
f 122/197/125 126/191/124 127/193/48
f 122/198/125 124/189/123 126/191/124
f 122/199/125 125/187/43 124/189/123
f 5/200/126 130/6/6 131/8/8 146/11/9 147/201/127
f 2/202/128 129/4/4 130/6/6 5/200/126
f 2/203/128 5/200/126 147/201/127 144/204/129
f 139/205/130 141/206/131 135/207/132 136/208/133
f 138/209/134 142/210/135 134/211/136 137/212/137
f 132/213/138 137/212/137 136/208/133 135/207/132
f 141/206/131 143/214/139 132/213/138 135/207/132
f 142/210/135 140/215/140 133/216/141 134/211/136
f 140/215/140 139/205/130 136/208/133 133/216/141
f 138/209/134 139/205/130 140/215/140 142/210/135
f 143/214/139 138/209/134 137/212/137 132/213/138
f 143/214/139 141/206/131 139/205/130 138/209/134
f 137/212/137 134/211/136 133/216/141 136/208/133
f 144/204/129 147/201/127 146/217/9 145/218/10
f 144/219/129 145/220/10 128/1/1 129/4/4 2/202/128
