# Blender v3.2.1 OBJ File: 'stuff.blend'
# www.blender.org
mtllib doorway.mtl
o Cube.001_Cube.003
v -0.655333 0.000000 0.108703
v -0.655333 1.848853 0.108703
v -0.655333 0.000000 -0.108703
v -0.655333 1.848853 -0.108703
v 0.655333 0.000000 0.108703
v 0.655333 1.848853 0.108703
v 0.655333 0.000000 -0.108703
v 0.655333 1.848853 -0.108703
v -0.559667 1.929447 -0.197941
v -0.559667 -0.080594 -0.197941
v -0.650484 1.929447 -0.258623
v -0.650484 -0.080594 -0.258623
v -0.757609 1.929447 -0.279931
v -0.757609 -0.080594 -0.279931
v -0.498986 -0.080594 -0.107125
v -0.498986 1.929447 -0.107125
v -0.477677 -0.080594 0.000000
v -0.477677 1.929447 0.000000
v -0.498986 -0.080594 0.107125
v -0.498986 1.929447 0.107125
v -0.559667 -0.080594 0.197941
v -0.559667 1.929447 0.197941
v -0.650484 -0.080594 0.258623
v -0.650484 1.929447 0.258623
v -0.757609 -0.080594 0.279931
v -0.757609 1.929447 0.279931
v -0.864734 -0.080594 0.258623
v -0.864734 1.929447 0.258623
v -0.955550 -0.080594 0.197941
v -0.955550 1.929447 0.197941
v -1.016232 -0.080594 0.107125
v -1.016232 1.929447 0.107125
v -1.037540 -0.080594 -0.000000
v -1.037540 1.929447 -0.000000
v -1.016232 -0.080594 -0.107125
v -1.016232 1.929447 -0.107125
v -0.955550 -0.080594 -0.197941
v -0.955550 1.929447 -0.197941
v -0.864734 -0.080594 -0.258623
v -0.864734 1.929447 -0.258623
v -1.108201 1.803986 0.354191
v -1.108201 2.109153 0.354191
v -1.108201 1.803986 -0.354191
v -1.108201 2.109153 -0.354191
v 1.094873 1.803986 0.354191
v 1.094873 2.109153 0.354191
v 1.094873 1.803986 -0.354191
v 1.094873 2.109153 -0.354191
v 0.951168 1.929447 -0.197941
v 0.951168 -0.080594 -0.197941
v 0.860352 1.929447 -0.258623
v 0.860352 -0.080594 -0.258623
v 0.753227 1.929447 -0.279931
v 0.753227 -0.080594 -0.279931
v 1.011850 -0.080594 -0.107125
v 1.011850 1.929447 -0.107125
v 1.033158 -0.080594 0.000000
v 1.033158 1.929447 0.000000
v 1.011850 -0.080594 0.107125
v 1.011850 1.929447 0.107125
v 0.951168 -0.080594 0.197941
v 0.951168 1.929447 0.197941
v 0.860352 -0.080594 0.258623
v 0.860352 1.929447 0.258623
v 0.753227 -0.080594 0.279931
v 0.753227 1.929447 0.279931
v 0.646102 -0.080594 0.258623
v 0.646102 1.929447 0.258623
v 0.555286 -0.080594 0.197941
v 0.555286 1.929447 0.197941
v 0.494604 -0.080594 0.107125
v 0.494604 1.929447 0.107125
v 0.473296 -0.080594 -0.000000
v 0.473296 1.929447 -0.000000
v 0.494604 -0.080594 -0.107125
v 0.494604 1.929447 -0.107125
v 0.555286 -0.080594 -0.197941
v 0.555286 1.929447 -0.197941
v 0.646102 -0.080594 -0.258623
v 0.646102 1.929447 -0.258623
v -0.006664 1.803986 -0.354191
v -0.006664 2.452008 -0.354191
v -0.006664 1.803986 0.354191
v -0.006664 2.452008 0.354191
v -1.108201 1.930715 0.354191
v -1.108201 1.930715 -0.354191
v 1.094873 1.930715 -0.354191
v 1.094873 1.930715 0.354191
v -0.006664 1.930715 0.354191
v -0.006664 1.930715 -0.354191
v 1.094873 1.930715 0.517772
v 1.094873 1.803986 0.517772
v -0.006664 1.803986 0.517772
v -1.108201 1.803986 0.517772
v -0.006664 1.930715 0.517772
v -1.108201 1.930715 0.517772
v -0.323974 2.116877 0.489504
v 0.310646 2.116877 0.489504
v -0.323974 2.265846 0.489504
v 0.310646 2.265846 0.489504
v -0.006664 1.999097 0.489504
v -0.006664 2.383626 0.489504
v -0.323974 2.265846 0.307841
v -0.323974 2.116877 0.307841
v -0.006664 1.999097 0.307841
v 0.310646 2.116877 0.307841
v 0.310646 2.265846 0.307841
v -0.006664 2.383626 0.307841
v 0.632232 2.094911 0.339604
v 0.586519 1.971756 0.339604
v 0.528700 1.971756 0.339604
v 0.482987 2.094911 0.339604
v 0.528700 2.218066 0.339604
v 0.586519 2.218066 0.339604
v 0.632232 2.094911 0.410111
v 0.482987 2.094911 0.410111
v 0.586519 1.971756 0.410111
v 0.586519 2.218066 0.410111
v 0.528700 1.971756 0.410111
v 0.528700 2.218066 0.410111
v -0.484147 2.094911 0.339604
v -0.529860 1.971756 0.339604
v -0.587679 1.971756 0.339604
v -0.633392 2.094911 0.339604
v -0.587679 2.218066 0.339604
v -0.529860 2.218066 0.339604
v -0.484147 2.094911 0.410111
v -0.633392 2.094911 0.410111
v -0.529860 1.971756 0.410111
v -0.529860 2.218066 0.410111
v -0.587679 1.971756 0.410111
v -0.587679 2.218066 0.410111
v 0.429103 -0.361066 0.324124
v 0.429103 0.199879 0.324124
v 0.429103 -0.361066 -0.324124
v 0.429103 0.199879 -0.324124
v 1.077351 -0.361066 0.324124
v 1.077351 0.199879 0.324124
v 1.077351 -0.361066 -0.324124
v 1.077351 0.199879 -0.324124
v 0.429103 0.024696 0.324124
v 0.429103 0.024696 -0.324124
v 1.077351 0.024696 -0.324124
v 1.077351 0.024696 0.324124
v 0.389339 0.112287 0.363889
v 0.389339 0.112287 -0.363889
v 1.117116 0.112287 -0.363889
v 1.117116 0.112287 0.363889
v -1.084823 -0.361066 0.324124
v -1.084823 0.199879 0.324124
v -1.084823 -0.361066 -0.324124
v -1.084823 0.199879 -0.324124
v -0.436574 -0.361066 0.324124
v -0.436574 0.199879 0.324124
v -0.436574 -0.361066 -0.324124
v -0.436574 0.199879 -0.324124
v -1.084823 0.024696 0.324124
v -1.084823 0.024696 -0.324124
v -0.436574 0.024696 -0.324124
v -0.436574 0.024696 0.324124
v -1.124587 0.112287 0.363889
v -1.124587 0.112287 -0.363889
v -0.396810 0.112287 -0.363889
v -0.396810 0.112287 0.363889
vt 1.000000 0.500000
vt 1.000000 1.000000
vt 0.937500 1.000000
vt 0.937500 0.500000
vt 0.937500 0.500000
vt 0.937500 1.000000
vt 0.875000 1.000000
vt 0.875000 0.500000
vt 0.875000 0.500000
vt 0.875000 1.000000
vt 0.812500 1.000000
vt 0.812500 0.500000
vt 0.750000 1.000000
vt 0.750000 0.500000
vt 0.687500 1.000000
vt 0.687500 0.500000
vt 0.625000 1.000000
vt 0.625000 0.500000
vt 0.562500 1.000000
vt 0.562500 0.500000
vt 0.500000 1.000000
vt 0.500000 0.500000
vt 0.437500 1.000000
vt 0.437500 0.500000
vt 0.375000 1.000000
vt 0.375000 0.500000
vt 0.312500 1.000000
vt 0.312500 0.500000
vt 0.250000 1.000000
vt 0.250000 0.500000
vt 0.187500 1.000000
vt 0.187500 0.500000
vt 0.125000 1.000000
vt 0.125000 0.500000
vt 0.750000 0.490000
vt 0.841844 0.471731
vt 0.919706 0.419706
vt 0.971731 0.341844
vt 0.990000 0.250000
vt 0.971731 0.158156
vt 0.919706 0.080294
vt 0.841844 0.028269
vt 0.750000 0.010000
vt 0.658156 0.028269
vt 0.580294 0.080294
vt 0.528269 0.158156
vt 0.510000 0.250000
vt 0.528269 0.341844
vt 0.580294 0.419706
vt 0.658156 0.471731
vt 0.062500 1.000000
vt 0.062500 0.500000
vt 0.000000 1.000000
vt 0.000000 0.500000
vt 0.419706 0.419706
vt 0.341844 0.471731
vt 0.250000 0.490000
vt 0.158156 0.471731
vt 0.080294 0.419706
vt 0.028269 0.341844
vt 0.010000 0.250000
vt 0.028269 0.158156
vt 0.080294 0.080294
vt 0.158156 0.028269
vt 0.250000 0.010000
vt 0.341844 0.028269
vt 0.419706 0.080294
vt 0.471731 0.158156
vt 0.490000 0.250000
vt 0.471731 0.341844
vt 0.500000 0.000000
vt 0.625000 0.000000
vt 0.625000 0.250000
vt 0.500000 0.250000
vt 0.500000 0.375000
vt 0.625000 0.375000
vt 0.625000 0.500000
vt 0.500000 0.500000
vt 0.625000 0.750000
vt 0.500000 0.750000
vt 0.500000 0.875000
vt 0.625000 0.875000
vt 0.625000 1.000000
vt 0.500000 1.000000
vt 0.250000 0.500000
vt 0.375000 0.500000
vt 0.375000 0.750000
vt 0.250000 0.750000
vt 0.750000 0.500000
vt 0.875000 0.500000
vt 0.875000 0.750000
vt 0.750000 0.750000
vt 1.000000 0.500000
vt 1.000000 1.000000
vt 0.937500 1.000000
vt 0.937500 0.500000
vt 0.937500 0.500000
vt 0.937500 1.000000
vt 0.875000 1.000000
vt 0.875000 0.500000
vt 0.875000 0.500000
vt 0.875000 1.000000
vt 0.812500 1.000000
vt 0.812500 0.500000
vt 0.750000 1.000000
vt 0.750000 0.500000
vt 0.687500 1.000000
vt 0.687500 0.500000
vt 0.625000 1.000000
vt 0.625000 0.500000
vt 0.562500 1.000000
vt 0.562500 0.500000
vt 0.500000 1.000000
vt 0.500000 0.500000
vt 0.437500 1.000000
vt 0.437500 0.500000
vt 0.375000 1.000000
vt 0.375000 0.500000
vt 0.312500 1.000000
vt 0.312500 0.500000
vt 0.250000 1.000000
vt 0.250000 0.500000
vt 0.187500 1.000000
vt 0.187500 0.500000
vt 0.125000 1.000000
vt 0.125000 0.500000
vt 0.750000 0.490000
vt 0.841844 0.471731
vt 0.919706 0.419706
vt 0.971731 0.341844
vt 0.990000 0.250000
vt 0.971731 0.158156
vt 0.919706 0.080294
vt 0.841844 0.028269
vt 0.750000 0.010000
vt 0.658156 0.028269
vt 0.580294 0.080294
vt 0.528269 0.158156
vt 0.510000 0.250000
vt 0.528269 0.341844
vt 0.580294 0.419706
vt 0.658156 0.471731
vt 0.062500 1.000000
vt 0.062500 0.500000
vt 0.000000 1.000000
vt 0.000000 0.500000
vt 0.419706 0.419706
vt 0.341844 0.471731
vt 0.250000 0.490000
vt 0.158156 0.471731
vt 0.080294 0.419706
vt 0.028269 0.341844
vt 0.010000 0.250000
vt 0.028269 0.158156
vt 0.080294 0.080294
vt 0.158156 0.028269
vt 0.250000 0.010000
vt 0.341844 0.028269
vt 0.419706 0.080294
vt 0.471731 0.158156
vt 0.490000 0.250000
vt 0.471731 0.341844
vt 0.125000 0.500000
vt 0.125000 0.750000
vt 0.375000 0.250000
vt 0.375000 0.375000
vt 0.500000 0.750000
vt 0.375000 0.750000
vt 0.500000 0.875000
vt 0.375000 0.000000
vt 0.375000 0.875000
vt 0.500000 1.000000
vt 0.375000 1.000000
vt 0.250000 0.750000
vt 0.125000 0.750000
vt 0.375000 0.000000
vt 0.500000 0.000000
vt 0.500000 0.000000
vt 1.000000 0.000000
vt 1.000000 1.000000
vt 0.500000 1.000000
vt 0.000000 0.000000
vt 0.000000 1.000000
vt 0.500000 0.000000
vt 0.500000 1.000000
vt 1.000000 1.000000
vt 1.000000 0.000000
vt 0.000000 0.000000
vt 0.000000 1.000000
vt 0.500000 0.000000
vt 0.500000 1.000000
vt 1.000000 1.000000
vt 1.000000 0.000000
vt 0.000000 0.000000
vt 0.000000 1.000000
vt 0.500000 0.000000
vt 1.000000 0.000000
vt 1.000000 1.000000
vt 0.500000 1.000000
vt 0.000000 0.000000
vt 0.000000 1.000000
vt 0.500000 0.000000
vt 0.500000 1.000000
vt 1.000000 1.000000
vt 1.000000 0.000000
vt 0.000000 0.000000
vt 0.000000 1.000000
vt 0.500000 0.000000
vt 1.000000 0.000000
vt 1.000000 1.000000
vt 0.500000 1.000000
vt 0.000000 0.000000
vt 0.000000 1.000000
vt 0.585963 0.000000
vt 0.625000 0.000000
vt 0.625000 0.250000
vt 0.585962 0.250000
vt 0.625000 0.500000
vt 0.585962 0.500000
vt 0.625000 0.750000
vt 0.585962 0.750000
vt 0.625000 1.000000
vt 0.585962 1.000000
vt 0.125000 0.500000
vt 0.375000 0.500000
vt 0.375000 0.750000
vt 0.125000 0.750000
vt 0.875000 0.500000
vt 0.875000 0.750000
vt 0.546925 0.750000
vt 0.546925 1.000000
vt 0.375000 1.000000
vt 0.546925 0.500000
vt 0.375000 0.250000
vt 0.546925 0.250000
vt 0.375000 0.000000
vt 0.546925 0.000000
vt 0.585963 0.000000
vt 0.625000 0.000000
vt 0.625000 0.250000
vt 0.585962 0.250000
vt 0.625000 0.500000
vt 0.585962 0.500000
vt 0.625000 0.750000
vt 0.585962 0.750000
vt 0.625000 1.000000
vt 0.585962 1.000000
vt 0.125000 0.500000
vt 0.375000 0.500000
vt 0.375000 0.750000
vt 0.125000 0.750000
vt 0.875000 0.500000
vt 0.875000 0.750000
vt 0.546925 0.750000
vt 0.546925 1.000000
vt 0.375000 1.000000
vt 0.546925 0.500000
vt 0.375000 0.250000
vt 0.546925 0.250000
vt 0.375000 0.000000
vt 0.546925 0.000000
vt 0.375000 0.000000
vt 0.625000 0.000000
vt 0.625000 0.250000
vt 0.375000 0.250000
vt 0.625000 0.500000
vt 0.375000 0.500000
vt 0.625000 0.750000
vt 0.375000 0.750000
vt 0.625000 1.000000
vt 0.375000 1.000000
vt 0.125000 0.500000
vt 0.125000 0.750000
vt 0.875000 0.500000
vt 0.875000 0.750000
vn 0.2856 -0.6657 -0.6894
vn 0.2856 0.6657 -0.6894
vn 0.5276 0.6657 -0.5276
vn 0.5276 -0.6657 -0.5276
vn 0.0000 -0.6657 -0.7462
vn 0.0000 0.6657 -0.7462
vn 0.6894 0.6657 -0.2856
vn 0.6894 -0.6657 -0.2856
vn 0.7462 0.6657 -0.0000
vn 0.7462 -0.6657 0.0000
vn 0.6894 0.6657 0.2856
vn 0.6894 -0.6657 0.2856
vn 0.5276 0.6657 0.5276
vn 0.5276 -0.6657 0.5276
vn 0.2856 0.6657 0.6894
vn 0.2856 -0.6657 0.6894
vn -0.0000 0.6657 0.7462
vn -0.0000 -0.6657 0.7462
vn -0.2856 0.6657 0.6894
vn -0.2856 -0.6657 0.6894
vn -0.5276 0.6657 0.5276
vn -0.5276 -0.6657 0.5276
vn -0.6894 0.6657 0.2856
vn -0.6894 -0.6657 0.2856
vn -0.7462 0.6657 -0.0000
vn -0.7462 -0.6657 0.0000
vn -0.6894 0.6657 -0.2856
vn -0.6894 -0.6657 -0.2856
vn -0.5276 0.6657 -0.5276
vn -0.5276 -0.6657 -0.5276
vn -0.2856 -0.6657 -0.6894
vn -0.2856 0.6657 -0.6894
vn -0.9045 0.3015 0.3015
vn -0.6473 0.4765 0.5949
vn -0.6473 0.4765 -0.5949
vn -0.7071 0.0000 -0.7071
vn 0.0000 0.0000 -1.0000
vn -0.0000 0.7634 -0.6459
vn 0.6473 0.4765 -0.5949
vn 0.7071 0.0000 -0.7071
vn 0.6473 0.4765 0.5949
vn 0.9045 0.3015 0.3015
vn 0.0000 0.7071 0.7071
vn -0.0000 0.7634 0.6459
vn 0.0000 -0.7071 -0.7071
vn 0.5774 -0.5774 -0.5774
vn 0.7071 -0.7071 0.0000
vn 0.0000 -1.0000 0.0000
vn -0.5774 -0.5774 -0.5774
vn -0.7071 -0.7071 0.0000
vn 0.5774 0.5774 0.5774
vn 0.5774 -0.5774 0.5774
vn 0.0000 -0.7071 0.7071
vn -0.5774 0.5774 0.5774
vn -0.5774 -0.5774 0.5774
vn 0.0000 -0.7713 0.6365
vn 0.6578 -0.4575 0.5984
vn 0.6578 0.4575 0.5984
vn 0.0000 0.7713 0.6365
vn -0.6578 -0.4575 0.5984
vn -0.6578 0.4575 0.5984
vn 0.0000 -0.7713 -0.6365
vn 0.0000 0.7713 -0.6365
vn 0.6578 0.4575 -0.5984
vn 0.6578 -0.4575 -0.5984
vn -0.6578 -0.4575 -0.5984
vn -0.6578 0.4575 -0.5984
vn -0.7713 0.0000 -0.6365
vn 0.7713 0.0000 -0.6365
vn 0.4575 -0.6578 -0.5984
vn -0.4575 -0.6578 -0.5984
vn -0.4575 0.6578 -0.5984
vn 0.4575 0.6578 -0.5984
vn -0.7713 0.0000 0.6365
vn -0.4575 -0.6578 0.5984
vn 0.4575 -0.6578 0.5984
vn 0.7713 0.0000 0.6365
vn -0.4575 0.6578 0.5984
vn 0.4575 0.6578 0.5984
vn -0.7071 -0.0000 0.7071
vn -0.4388 0.7841 0.4388
vn -0.4388 0.7841 -0.4388
vn 0.4388 0.7841 -0.4388
vn 0.4388 0.7841 0.4388
vn 0.7071 0.0000 0.7071
vn 0.6691 -0.3233 0.6691
vn -0.6691 -0.3233 0.6691
vn 0.6691 -0.3233 -0.6691
vn -0.6691 -0.3233 -0.6691
vn -0.5774 0.5774 -0.5774
vn 0.5774 0.5774 -0.5774
g Cube.001_Cube.003_Material
usemtl Material
s 1
f 12/1/1 11/2/2 9/3/3 10/4/4
f 14/5/5 13/6/6 11/7/2 12/8/1
f 10/9/4 9/10/3 16/11/7 15/12/8
f 15/12/8 16/11/7 18/13/9 17/14/10
f 17/14/10 18/13/9 20/15/11 19/16/12
f 19/16/12 20/15/11 22/17/13 21/18/14
f 21/18/14 22/17/13 24/19/15 23/20/16
f 23/20/16 24/19/15 26/21/17 25/22/18
f 25/22/18 26/21/17 28/23/19 27/24/20
f 27/24/20 28/23/19 30/25/21 29/26/22
f 29/26/22 30/25/21 32/27/23 31/28/24
f 31/28/24 32/27/23 34/29/25 33/30/26
f 33/30/26 34/29/25 36/31/27 35/32/28
f 35/32/28 36/31/27 38/33/29 37/34/30
f 14/35/5 12/36/1 10/37/4 15/38/8 17/39/10 19/40/12 21/41/14 23/42/16 25/43/18 27/44/20 29/45/22 31/46/24 33/47/26 35/48/28 37/49/30 39/50/31
f 37/34/30 38/33/29 40/51/32 39/52/31
f 39/52/31 40/51/32 13/53/6 14/54/5
f 9/55/3 11/56/2 13/57/6 40/58/32 38/59/29 36/60/27 34/61/25 32/62/23 30/63/21 28/64/19 26/65/17 24/66/15 22/67/13 20/68/11 18/69/9 16/70/7
f 85/71/33 42/72/34 44/73/35 86/74/36
f 90/75/37 82/76/38 48/77/39 87/78/40
f 87/78/40 48/77/39 46/79/41 88/80/42
f 89/81/43 84/82/44 42/83/34 85/84/33
f 81/85/45 47/86/46 45/87/47 83/88/48
f 82/89/38 44/90/35 42/91/34 84/92/44
f 52/93/1 51/94/2 49/95/3 50/96/4
f 54/97/5 53/98/6 51/99/2 52/100/1
f 50/101/4 49/102/3 56/103/7 55/104/8
f 55/104/8 56/103/7 58/105/9 57/106/10
f 57/106/10 58/105/9 60/107/11 59/108/12
f 59/108/12 60/107/11 62/109/13 61/110/14
f 61/110/14 62/109/13 64/111/15 63/112/16
f 63/112/16 64/111/15 66/113/17 65/114/18
f 65/114/18 66/113/17 68/115/19 67/116/20
f 67/116/20 68/115/19 70/117/21 69/118/22
f 69/118/22 70/117/21 72/119/23 71/120/24
f 71/120/24 72/119/23 74/121/25 73/122/26
f 73/122/26 74/121/25 76/123/27 75/124/28
f 75/124/28 76/123/27 78/125/29 77/126/30
f 54/127/5 52/128/1 50/129/4 55/130/8 57/131/10 59/132/12 61/133/14 63/134/16 65/135/18 67/136/20 69/137/22 71/138/24 73/139/26 75/140/28 77/141/30 79/142/31
f 77/126/30 78/125/29 80/143/32 79/144/31
f 79/144/31 80/143/32 53/145/6 54/146/5
f 49/147/3 51/148/2 53/149/6 80/150/32 78/151/29 76/152/27 74/153/25 72/154/23 70/155/21 68/156/19 66/157/17 64/158/15 62/159/13 60/160/11 58/161/9 56/162/7
f 48/77/39 82/89/38 84/92/44 46/79/41
f 43/163/49 81/85/45 83/88/48 41/164/50
f 88/80/42 46/79/41 84/82/44 89/81/43
f 86/74/36 44/73/35 82/76/38 90/75/37
f 43/165/49 86/74/36 90/75/37 81/166/45
f 45/87/47 88/80/42 91/167/51 92/168/52
f 88/80/42 89/81/43 95/169/43 91/167/51
f 47/86/46 87/78/40 88/80/42 45/87/47
f 81/166/45 90/75/37 87/78/40 47/86/46
f 41/170/50 85/71/33 86/74/36 43/165/49
f 92/168/52 91/167/51 95/169/43 93/171/53
f 93/171/53 95/169/43 96/172/54 94/173/55
f 41/164/50 83/88/48 93/174/53 94/175/55
f 89/81/43 85/84/33 96/172/54 95/169/43
f 83/88/48 45/87/47 92/168/52 93/174/53
f 85/71/33 41/170/50 94/176/55 96/177/54
f 101/178/56 98/179/57 100/180/58 102/181/59
f 97/182/60 101/178/56 102/181/59 99/183/61
f 105/184/62 108/185/63 107/186/64 106/187/65
f 104/188/66 103/189/67 108/185/63 105/184/62
f 100/180/58 107/186/64 108/185/63 102/181/59
f 102/181/59 108/185/63 103/189/67 99/183/61
f 101/178/56 105/184/62 106/187/65 98/179/57
f 97/182/60 104/188/66 105/184/62 101/178/56
f 98/179/57 106/187/65 107/186/64 100/180/58
f 99/183/61 103/189/67 104/188/66 97/182/60
f 112/190/68 109/191/69 110/192/70 111/193/71
f 113/194/72 114/195/73 109/191/69 112/190/68
f 116/196/74 119/197/75 117/198/76 115/199/77
f 120/200/78 116/196/74 115/199/77 118/201/79
f 117/198/76 110/192/70 109/191/69 115/199/77
f 115/199/77 109/191/69 114/195/73 118/201/79
f 116/196/74 112/190/68 111/193/71 119/197/75
f 120/200/78 113/194/72 112/190/68 116/196/74
f 119/197/75 111/193/71 110/192/70 117/198/76
f 118/201/79 114/195/73 113/194/72 120/200/78
f 124/202/68 121/203/69 122/204/70 123/205/71
f 125/206/72 126/207/73 121/203/69 124/202/68
f 128/208/74 131/209/75 129/210/76 127/211/77
f 132/212/78 128/208/74 127/211/77 130/213/79
f 129/210/76 122/204/70 121/203/69 127/211/77
f 127/211/77 121/203/69 126/207/73 130/213/79
f 128/208/74 124/202/68 123/205/71 131/209/75
f 132/212/78 125/206/72 124/202/68 128/208/74
f 131/209/75 123/205/71 122/204/70 129/210/76
f 130/213/79 126/207/73 125/206/72 132/212/78
f 145/214/80 134/215/81 136/216/82 146/217/36
f 146/217/36 136/216/82 140/218/83 147/219/40
f 147/219/40 140/218/83 138/220/84 148/221/85
f 148/221/85 138/220/84 134/222/81 145/223/80
f 135/224/49 139/225/46 137/226/52 133/227/55
f 140/218/83 136/228/82 134/229/81 138/220/84
f 137/226/52 144/230/86 141/231/87 133/232/55
f 139/225/46 143/233/88 144/230/86 137/226/52
f 135/234/49 142/235/89 143/233/88 139/225/46
f 133/236/55 141/237/87 142/235/89 135/234/49
f 144/230/86 148/221/85 145/223/80 141/231/87
f 143/233/88 147/219/40 148/221/85 144/230/86
f 142/235/89 146/217/36 147/219/40 143/233/88
f 141/237/87 145/214/80 146/217/36 142/235/89
f 161/238/80 150/239/81 152/240/82 162/241/36
f 162/241/36 152/240/82 156/242/83 163/243/40
f 163/243/40 156/242/83 154/244/84 164/245/85
f 164/245/85 154/244/84 150/246/81 161/247/80
f 151/248/49 155/249/46 153/250/52 149/251/55
f 156/242/83 152/252/82 150/253/81 154/244/84
f 153/250/52 160/254/86 157/255/87 149/256/55
f 155/249/46 159/257/88 160/254/86 153/250/52
f 151/258/49 158/259/89 159/257/88 155/249/46
f 149/260/55 157/261/87 158/259/89 151/258/49
f 160/254/86 164/245/85 161/247/80 157/255/87
f 159/257/88 163/243/40 164/245/85 160/254/86
f 158/259/89 162/241/36 163/243/40 159/257/88
f 157/261/87 161/238/80 162/241/36 158/259/89
g Cube.001_Cube.003_Material.001
usemtl Material.001
f 1/262/55 2/263/54 4/264/90 3/265/49
f 3/265/49 4/264/90 8/266/91 7/267/46
f 7/267/46 8/266/91 6/268/51 5/269/52
f 5/269/52 6/268/51 2/270/54 1/271/55
f 3/272/49 7/267/46 5/269/52 1/273/55
f 8/266/91 4/274/90 2/275/54 6/268/51
